<svg width="300" height="201" viewBox="0 0 300 201" fill="none" xmlns="http://www.w3.org/2000/svg">
<path d="M132.032 73.1828C132.032 108.814 103.147 137.699 67.5161 137.699C31.8849 137.699 3 108.814 3 73.1828C3 37.5515 31.8849 8.66663 67.5161 8.66663C103.147 8.66663 132.032 37.5515 132.032 73.1828Z" fill="#2D7DF8"/>
<path fill-rule="evenodd" clip-rule="evenodd" d="M60.1322 41.3388C61.6722 41.9243 61.748 42.1992 61.9236 47.8617C62.1069 53.7731 62.1069 53.7731 74.0244 53.9462C85.1624 54.1078 85.9859 54.202 86.6172 55.3819C87.2014 56.4739 86.4944 57.5659 81.3708 63.4818C78.1138 67.2422 75.1145 70.755 74.7066 71.2883C74.0715 72.1169 74.3216 72.2569 76.4331 72.2569C78.138 72.2569 79.7506 72.8455 81.6413 74.1558C83.3697 75.3541 84.967 77.2277 85.9713 79.2329C87.3522 81.9903 87.5616 83.251 87.5565 88.7742C87.552 94.0574 87.3197 95.5701 86.187 97.6836C85.4361 99.0836 84.1461 100.86 83.3201 101.63C82.4934 102.402 80.7567 103.475 79.4598 104.017C78.1635 104.559 75.3036 105.001 73.1049 104.999C70.2653 104.998 68.5178 104.638 67.0732 103.757C65.9551 103.075 64.5659 101.794 63.9867 100.91C63.4076 100.026 62.6981 98.2563 62.4091 96.9772C62.1158 95.6751 62.1381 93.9836 62.4601 93.1366C62.777 92.3036 63.7456 91.2987 64.6136 90.9035C65.8819 90.3257 66.5081 90.3925 67.8082 91.244C69.0511 92.0586 69.4253 92.8413 69.4253 94.6251C69.4253 95.9042 68.9461 97.4761 68.3587 98.1259C67.6097 98.9532 67.492 99.5049 67.9635 99.9765C68.3326 100.346 69.8014 100.91 71.2262 101.23C72.919 101.611 74.4349 101.578 75.5988 101.137C76.5782 100.766 78.0298 99.8543 78.8234 99.1103C79.6176 98.367 80.6912 96.3293 81.2098 94.5825C81.7285 92.8362 82.1529 90.0788 82.1529 88.456C82.1529 86.8332 81.7189 84.0427 81.1882 82.2557C80.5741 80.1881 79.5145 78.4094 78.2755 77.367C76.9531 76.254 75.5778 75.7296 73.9901 75.7328C72.7046 75.7347 70.7935 76.3055 69.7435 77.0011C68.6934 77.6967 67.6192 78.2675 67.357 78.2694C67.0948 78.272 66.8797 78.0066 66.8797 77.6795C66.8797 77.3524 69.7416 72.6992 73.2385 67.3383C79.5979 57.5914 79.5979 57.5914 71.5222 57.4126C67.0808 57.3139 63.0735 57.3763 62.6179 57.5513C61.9828 57.795 61.7887 60.3368 61.7887 68.4106C61.7887 76.1751 62.0318 79.532 62.7108 81.158C63.5101 83.0709 63.925 83.3649 65.8265 83.3649C67.5435 83.3649 68.4523 82.873 70.0044 81.1058C71.0958 79.8629 72.2705 79.0203 72.6161 79.2342C72.961 79.4474 73.2417 80.106 73.2391 80.6978C73.2372 81.2897 72.6817 82.614 72.0052 83.6405C71.3281 84.6663 70.1132 85.8736 69.3044 86.3222C68.4962 86.7709 66.6602 87.1482 65.2245 87.161C63.7895 87.173 61.732 86.8752 60.6527 86.4991C59.5734 86.123 58.1708 85.0494 57.5351 84.1127C56.5481 82.6585 56.333 80.6005 56.0612 70.0009C55.743 57.5914 55.743 57.5914 51.4474 57.403C47.3854 57.2255 47.1519 57.1319 47.1519 55.6823C47.1519 54.2326 47.3854 54.139 51.4474 53.9615C55.743 53.7731 55.743 53.7731 55.932 49.8103C56.0873 46.5559 55.8748 45.5148 54.7433 43.9842C53.986 42.9597 53.5596 41.8072 53.7963 41.4241C54.0331 41.041 55.1938 40.7272 56.3756 40.7272C57.5574 40.7272 59.2476 41.0022 60.1322 41.3388Z" fill="white"/>
<path d="M136.548 189.957C172.301 189.957 201.065 161.194 201.065 125.441C201.065 89.6879 172.301 60.9247 136.548 60.9247C100.795 60.9247 72.0323 89.6879 72.0323 125.441C72.0323 161.194 100.795 189.957 136.548 189.957Z" fill="black" fill-opacity="0.25"/>
<path d="M138.484 191.247C174.237 191.247 203 162.484 203 126.731C203 90.9782 174.237 62.215 138.484 62.215C102.731 62.215 73.9677 90.9782 73.9677 126.731C73.9677 162.484 102.731 191.247 138.484 191.247Z" fill="#2775CA"/>
<path d="M156.226 136.946C156.226 127.538 150.581 124.312 139.29 122.968C131.226 121.892 129.613 119.742 129.613 115.978C129.613 112.214 132.301 109.796 137.677 109.796C142.516 109.796 145.204 111.409 146.548 115.441C146.817 116.247 147.624 116.785 148.43 116.785H152.731C153.806 116.785 154.613 115.978 154.613 114.903V114.634C153.537 108.72 148.699 104.151 142.516 103.613V97.1615C142.516 96.086 141.71 95.2795 140.366 95.0105H136.334C135.258 95.0105 134.452 95.817 134.183 97.1615V103.344C126.118 104.42 121.011 109.796 121.011 116.516C121.011 125.387 126.387 128.881 137.677 130.226C145.204 131.57 147.624 133.183 147.624 137.484C147.624 141.785 143.86 144.742 138.753 144.742C131.763 144.742 129.344 141.785 128.537 137.752C128.269 136.678 127.463 136.14 126.656 136.14H122.086C121.011 136.14 120.205 136.946 120.205 138.021V138.291C121.279 145.011 125.581 149.849 134.452 151.194V157.645C134.452 158.72 135.258 159.527 136.602 159.796H140.634C141.71 159.796 142.516 158.989 142.785 157.645V151.194C150.85 149.849 156.226 144.204 156.226 136.946Z" fill="white"/>
<path d="M124.774 165.172C103.806 157.645 93.0536 134.258 100.85 113.559C104.882 102.269 113.753 93.6666 124.774 89.6344C125.85 89.0969 126.387 88.2905 126.387 86.946V83.1827C126.387 82.1073 125.85 81.3008 124.774 81.0324C124.505 81.0324 123.968 81.0324 123.699 81.3008C98.1613 89.3653 84.1826 116.516 92.2471 142.054C97.0858 157.107 108.645 168.667 123.699 173.505C124.774 174.043 125.85 173.505 126.118 172.43C126.387 172.161 126.387 171.892 126.387 171.355V167.591C126.387 166.785 125.581 165.71 124.774 165.172ZM153.269 81.3008C152.194 80.7634 151.118 81.3008 150.85 82.3763C150.581 82.6453 150.581 82.9137 150.581 83.4518V87.215C150.581 88.2905 151.387 89.3653 152.194 89.9034C173.161 97.4298 183.914 120.817 176.118 141.516C172.086 152.807 163.215 161.409 152.194 165.441C151.118 165.978 150.581 166.785 150.581 168.129V171.892C150.581 172.968 151.118 173.774 152.194 174.043C152.463 174.043 153 174.043 153.269 173.774C178.806 165.71 192.785 138.559 184.721 113.021C179.882 97.6989 168.054 86.1395 153.269 81.3008Z" fill="white"/>
</svg>
