<svg width="1240" height="709" viewBox="0 0 1240 709" fill="none" xmlns="http://www.w3.org/2000/svg">
    <path d="M859.149 508.837C859.589 509.538 859.377 510.464 858.675 510.904L847.237 518.075C846.535 518.515 845.609 518.303 845.169 517.601C844.729 516.899 844.942 515.973 845.644 515.533L855.811 509.159L849.437 498.992C848.997 498.29 849.209 497.364 849.911 496.924C850.613 496.484 851.538 496.697 851.978 497.398L859.149 508.837ZM722.869 445.069C745.332 463.027 764.01 475.313 784.62 484.85C805.237 494.39 827.848 501.208 858.214 508.171L857.543 511.095C827.089 504.112 804.249 497.239 783.36 487.572C762.462 477.902 743.577 465.465 720.996 447.412L722.869 445.069Z" fill="white" fill-opacity="0.5"/>
    <path d="M388.263 508.837C387.823 509.538 388.035 510.464 388.737 510.904L400.175 518.075C400.877 518.515 401.803 518.303 402.243 517.601C402.683 516.899 402.47 515.973 401.768 515.533L391.601 509.159L397.975 498.992C398.415 498.29 398.203 497.364 397.501 496.924C396.799 496.484 395.874 496.697 395.434 497.398L388.263 508.837ZM524.543 445.069C502.08 463.027 483.402 475.313 462.792 484.85C442.175 494.39 419.564 501.208 389.198 508.171L389.869 511.095C420.323 504.112 443.163 497.239 464.052 487.572C484.95 477.902 503.835 465.465 526.416 447.412L524.543 445.069Z" fill="white" fill-opacity="0.5"/>
    <path d="M853.945 199.647C854.323 198.909 854.03 198.006 853.293 197.628L841.273 191.482C840.536 191.105 839.632 191.397 839.255 192.134C838.878 192.872 839.17 193.776 839.907 194.153L850.591 199.616L845.128 210.3C844.751 211.038 845.043 211.942 845.78 212.319C846.518 212.696 847.422 212.404 847.799 211.666L853.945 199.647ZM723.741 275.049C744.554 255.202 762.09 241.335 781.79 230.038C801.498 218.737 823.428 209.974 853.071 200.391L852.148 197.537C822.418 207.148 800.265 215.986 780.297 227.436C760.322 238.89 742.593 252.926 721.671 272.878L723.741 275.049Z" fill="white" fill-opacity="0.5"/>
    <path d="M380.851 211.771C380.411 211.069 380.623 210.143 381.325 209.703L392.763 202.532C393.465 202.092 394.391 202.305 394.831 203.006C395.271 203.708 395.058 204.634 394.356 205.074L384.189 211.448L390.563 221.615C391.003 222.317 390.791 223.243 390.089 223.683C389.387 224.123 388.462 223.911 388.022 223.209L380.851 211.771ZM517.131 275.538C494.668 257.58 475.99 245.294 455.38 235.758C434.763 226.217 412.152 219.399 381.786 212.436L382.457 209.512C412.911 216.496 435.751 223.369 456.64 233.035C477.538 242.705 496.423 255.142 519.004 273.195L517.131 275.538Z" fill="white" fill-opacity="0.5"/>
</svg>
