<svg width="40" height="40" viewBox="0 0 40 40" fill="none" xmlns="http://www.w3.org/2000/svg">
<rect y="0" width="40" height="40" rx="20" fill="#F8F7F1"/>
<path fill-rule="evenodd" clip-rule="evenodd" d="M12.0816 9.1689L5 12.8042V17.3179V21.8316H10.6468H16.2936V26.4275V31.0234L12.1279 28.8804L7.96225 26.7372V25.3549V23.9724H6.48112H5V26.1063V28.2403L5.78685 28.6451L6.5737 29.0498L12.8524 32.2749L19.131 35.5H19.1934H19.2558V27.3484V19.1967H13.609H7.96225V16.7496V14.3025L12.0337 12.2209L16.1051 10.1394H16.1993H16.2936V13.5976V17.0559H17.7747H19.2558V11.2921V5.52832L19.2095 5.53112L19.1633 5.53376L12.0816 9.1689ZM20.737 12.6777V19.8554H22.2181H23.6992V17.8793V15.9031H27.8649H32.0305V17.8793V19.8554H33.5154H35L34.9502 16.3031L34.9002 12.7508L30.8271 10.6467L26.754 8.54245L26.6152 8.60948L26.4763 8.67667V10.0611V11.4456L27.9111 12.1817L29.346 12.9178L29.6237 13.0833L29.9014 13.2488L26.8003 13.2585L23.6992 13.2683V10.1594V7.05079L23.4678 6.88957L23.2364 6.72834L21.9867 6.11409L20.737 5.5V12.6777ZM20.737 28.3364V35.5H20.8182H20.8995L23.8268 33.9929L26.754 32.4857L29.1609 31.2528L31.5677 30.02L33.2802 29.1274L34.9928 28.2348V26.9271V25.6192H30.3643H25.7357V26.9302V28.2413L27.3452 28.2888L28.9544 28.3364L26.3269 29.6842L23.6992 31.0319V27.4198V23.8078H29.346H34.9928V22.4903V21.1729H27.8649H20.737V28.3364Z" fill="#1A1A1A"/>
</svg>
