<?xml version="1.0" standalone="no"?>
<!DOCTYPE svg PUBLIC "-//W3C//DTD SVG 20010904//EN"
 "http://www.w3.org/TR/2001/REC-SVG-20010904/DTD/svg10.dtd">
<svg version="1.0" xmlns="http://www.w3.org/2000/svg"
 width="30.000000pt" height="30.000000pt" viewBox="0 0 30.000000 30.000000"
 preserveAspectRatio="xMidYMid meet">

<g transform="translate(0.000000,30.000000) scale(0.100000,-0.100000)"
fill="#000000" stroke="none">
<path d="M253 271 c-5 -21 -13 -24 -70 -36 -26 -5 -35 -2 -45 14 -17 28 -46
26 -58 -4 -6 -15 -21 -27 -42 -33 -23 -6 -33 -14 -33 -27 0 -27 35 -33 41 -8
6 21 52 53 77 53 8 0 26 -10 41 -21 l27 -21 23 21 c13 12 36 25 52 30 19 5 29
14 29 27 0 27 -35 31 -42 5z"/>
<path d="M250 100 c0 -89 0 -90 25 -90 25 0 25 1 25 90 0 89 0 90 -25 90 -25
0 -25 -1 -25 -90z"/>
<path d="M93 173 c-9 -3 -13 -30 -13 -84 0 -78 0 -79 25 -79 26 0 26 0 23 82
-3 79 -9 92 -35 81z"/>
<path d="M170 75 c0 -63 1 -65 25 -65 24 0 25 2 25 65 0 63 -1 65 -25 65 -24
0 -25 -2 -25 -65z"/>
<path d="M0 61 c0 -48 2 -51 26 -51 24 0 25 2 22 48 -3 40 -6 47 -25 50 -21 3
-23 0 -23 -47z"/>
</g>
</svg>
