<?xml version="1.0" standalone="no"?>
<!DOCTYPE svg PUBLIC "-//W3C//DTD SVG 20010904//EN"
 "http://www.w3.org/TR/2001/REC-SVG-20010904/DTD/svg10.dtd">
<svg version="1.0" xmlns="http://www.w3.org/2000/svg"
 width="30.000000pt" height="30.000000pt" viewBox="0 0 30.000000 30.000000"
 preserveAspectRatio="xMidYMid meet">

<g transform="translate(0.000000,30.000000) scale(0.100000,-0.100000)"
fill="#000000" stroke="none">
<path d="M110 280 c0 -18 7 -20 75 -20 l75 0 0 -110 0 -110 -75 0 c-68 0 -75
-2 -75 -20 0 -19 7 -20 95 -20 l95 0 0 150 0 150 -95 0 c-88 0 -95 -1 -95 -20z"/>
<path d="M35 180 l-29 -30 29 -30 c34 -35 45 -38 45 -10 0 18 7 20 75 20 68 0
75 2 75 20 0 18 -7 20 -75 20 -68 0 -75 2 -75 20 0 28 -11 25 -45 -10z"/>
</g>
</svg>
