<?xml version="1.0" standalone="no"?>
<!DOCTYPE svg PUBLIC "-//W3C//DTD SVG 20010904//EN"
 "http://www.w3.org/TR/2001/REC-SVG-20010904/DTD/svg10.dtd">
<svg version="1.0" xmlns="http://www.w3.org/2000/svg"
 width="30.000000pt" height="30.000000pt" viewBox="0 0 30.000000 30.000000"
 preserveAspectRatio="xMidYMid meet">

<g transform="translate(0.000000,30.000000) scale(0.100000,-0.100000)"
fill="#000000" stroke="none">
<path d="M50 287 c0 -7 -10 -17 -22 -22 -22 -9 -23 -17 -26 -124 -2 -75 1
-118 9 -127 17 -20 261 -20 278 0 8 9 11 52 9 127 -3 107 -4 115 -25 124 -13
5 -23 15 -23 22 0 7 -7 13 -15 13 -8 0 -15 -7 -15 -15 0 -12 -14 -15 -70 -15
-56 0 -70 3 -70 15 0 8 -7 15 -15 15 -8 0 -15 -6 -15 -13z m218 -175 l3 -82
-121 0 -120 0 0 78 c0 43 3 82 7 86 4 3 57 5 117 4 l111 -3 3 -83z"/>
<path d="M150 95 c0 -34 1 -35 40 -35 39 0 40 1 40 35 0 34 -1 35 -40 35 -39
0 -40 -1 -40 -35z"/>
</g>
</svg>
