<svg width="250" height="201" viewBox="0 0 250 201" fill="none" xmlns="http://www.w3.org/2000/svg">
<path fill-rule="evenodd" clip-rule="evenodd" d="M90.6852 0.216469C89.8123 0.292283 87.2233 0.633647 84.9318 0.975011C82.6404 1.31637 78.98 2.01419 76.7977 2.52544C74.6154 3.03709 71.0443 4.02704 68.862 4.72604C66.6796 5.42505 62.8407 6.87703 60.331 7.95272C57.8214 9.02842 53.9959 10.8984 51.8299 12.1082C49.6642 13.3177 46.361 15.3385 44.4893 16.5988C42.6181 17.859 39.5692 20.0823 37.7142 21.5398C35.8592 22.9969 32.3159 26.1919 29.8407 28.639C27.3652 31.0865 23.9314 34.8319 22.2105 36.9623C20.4893 39.093 18.0348 42.3975 16.7563 44.3056C15.4775 46.214 13.3515 49.7404 12.0322 52.1419C10.7128 54.5433 8.87533 58.2944 7.94883 60.4775C7.02273 62.6606 5.59152 66.501 4.76859 69.0116C3.94565 71.5222 2.81481 75.6305 2.25574 78.1411C1.69666 80.6517 0.960623 84.8445 0.620577 87.4587C0.253152 90.2789 0.000796019 95.2101 2.44557e-06 99.5867C-0.000791128 103.643 0.19165 108.739 0.427342 110.91C0.66343 113.081 1.28519 117.001 1.80975 119.621C2.3343 122.241 3.2239 125.972 3.78654 127.913C4.34958 129.855 5.4459 133.159 6.22281 135.256C6.99972 137.354 8.77296 141.393 10.1629 144.231C11.5528 147.069 13.901 151.312 15.3814 153.661C16.8619 156.01 19.5017 159.748 21.2475 161.969C22.9934 164.19 26.4752 168.083 28.9849 170.622C31.4946 173.16 35.2442 176.585 37.3174 178.233C39.3906 179.88 42.6939 182.297 44.658 183.603C46.6221 184.909 50.0146 186.957 52.1969 188.153C54.3792 189.349 57.8662 191.068 59.9454 191.973C62.0245 192.877 65.8642 194.333 68.4775 195.207C71.0907 196.081 75.2887 197.241 77.8063 197.786C80.3243 198.331 84.4843 199.051 87.0511 199.388C89.8714 199.758 94.7626 200 99.4145 200C104.043 200 108.978 199.757 111.794 199.39C114.369 199.054 118.53 198.329 121.039 197.777C123.549 197.225 128.013 195.972 130.959 194.991C133.905 194.009 139.173 191.807 142.664 190.096C146.156 188.385 151.156 185.552 153.774 183.801C156.393 182.051 160.053 179.401 161.908 177.913C163.763 176.424 167.165 173.328 169.469 171.031C171.772 168.735 175.119 165.017 176.907 162.77C178.694 160.522 181.105 157.217 182.265 155.426C183.425 153.635 185.04 151.062 185.855 149.709C186.669 148.356 188.213 145.374 189.285 143.083C190.357 140.791 192.052 136.66 193.051 133.902C194.051 131.145 195.385 126.772 196.016 124.186C196.648 121.6 197.49 117.55 197.887 115.186C198.472 111.717 198.608 108.745 198.597 99.774C198.584 90.0328 198.474 88.0617 197.698 83.8184C197.212 81.1558 196.378 77.3155 195.845 75.2843C195.312 73.2532 194.262 69.8055 193.511 67.6223C192.761 65.4392 191.862 62.9941 191.515 62.1891C190.884 60.7252 190.884 60.7252 193.711 61.8914C195.266 62.5328 196.879 63.0576 197.295 63.0576C197.711 63.0576 198.49 62.619 199.026 62.0831C199.673 61.4361 200 60.6621 200 59.7777C200 59.0454 199.777 58.1511 199.504 57.7902C199.231 57.4298 195.717 55.7774 191.695 54.1178C187.673 52.4586 183.917 51.0078 183.348 50.8943C182.683 50.7609 181.996 50.9467 181.425 51.4147C180.886 51.8557 179.291 55.1752 177.373 59.8468C175.633 64.0844 174.209 67.8883 174.209 68.2999C174.209 68.7111 174.647 69.4859 175.183 70.0218C175.83 70.6692 176.603 70.9963 177.488 70.9963C178.22 70.9963 179.123 70.7732 179.496 70.5001C179.869 70.2274 180.782 68.3963 181.525 66.4315C182.268 64.4667 183.145 62.2339 183.471 61.4698C184.066 60.0806 184.066 60.0806 184.931 62.0652C185.407 63.1568 186.409 65.7468 187.159 67.8208C187.908 69.8948 188.964 73.3314 189.505 75.4578C190.046 77.5842 190.735 80.6207 191.037 82.2057C191.338 83.7907 191.804 87.0872 192.072 89.5315C192.382 92.3625 192.486 97.0455 192.359 102.432C192.216 108.493 191.926 112.191 191.336 115.486C190.883 118.015 190.061 121.784 189.508 123.862C188.955 125.94 187.883 129.377 187.125 131.5C186.366 133.623 184.994 136.998 184.073 139.001C183.154 141.004 181.429 144.34 180.24 146.414C179.052 148.488 177.089 151.614 175.878 153.36C174.668 155.107 172.647 157.803 171.388 159.353C170.129 160.902 167.525 163.761 165.603 165.704C163.68 167.648 160.577 170.525 158.707 172.097C156.837 173.67 153.315 176.288 150.881 177.915C148.446 179.542 144.307 181.969 141.682 183.308C139.057 184.646 135.261 186.378 133.247 187.157C131.232 187.935 128.51 188.903 127.197 189.309C125.883 189.714 122.934 190.497 120.643 191.049C118.351 191.601 114.602 192.311 112.31 192.627C110.019 192.942 105.733 193.322 102.787 193.47C99.5348 193.634 95.4046 193.556 92.2724 193.271C89.4353 193.013 85.5964 192.538 83.7415 192.217C81.8865 191.895 78.8796 191.273 77.06 190.835C75.2399 190.397 72.1152 189.494 70.1162 188.83C68.1168 188.166 64.6064 186.818 62.315 185.835C60.0235 184.851 55.7747 182.687 52.873 181.025C49.9713 179.363 45.7634 176.626 43.5216 174.942C41.2797 173.258 37.6118 170.136 35.3704 168.004C33.1293 165.873 29.8689 162.42 28.1254 160.332C26.3816 158.244 23.5211 154.392 21.7685 151.772C20.0159 149.153 17.3662 144.509 15.8806 141.452C14.395 138.396 12.5468 134.18 11.7731 132.084C10.9997 129.988 9.83317 126.148 9.18046 123.55C8.52735 120.952 7.71711 117.206 7.37905 115.225C7.04098 113.244 6.59222 109.059 6.38152 105.925C6.13472 102.251 6.13552 98.0712 6.3843 94.1586C6.59619 90.8212 7.21279 85.6916 7.75401 82.759C8.29562 79.8265 9.37607 75.3105 10.1554 72.7233C10.9347 70.1361 12.5619 65.6972 13.7713 62.8591C14.9811 60.021 17.0468 55.8234 18.3621 53.5311C19.6771 51.2388 21.7439 47.9344 22.9541 46.1878C24.1647 44.4413 25.9681 42.03 26.9617 40.8292C27.9552 39.6285 29.838 37.4378 31.1454 35.9608C32.4524 34.4838 35.3136 31.6958 37.5031 29.7655C39.6922 27.8352 43.0907 25.1011 45.0547 23.69C47.0188 22.2785 49.9701 20.3105 51.6132 19.3162C53.2559 18.3218 55.9049 16.8512 57.5 16.0478C59.0947 15.2444 62.6304 13.6952 65.3571 12.6048C68.0839 11.5148 72.6664 10.0239 75.5403 9.29198C78.4142 8.56003 82.4618 7.65661 84.535 7.28389C87.0376 6.83456 91.4288 6.53765 97.5992 6.40031C106.665 6.19867 106.916 6.17089 107.816 5.27024C108.324 4.76256 108.739 3.90717 108.739 3.36932C108.739 2.83147 108.628 2.10231 108.493 1.74903C108.357 1.39536 107.741 0.845213 107.123 0.525681C106.248 0.0731754 104.487 -0.0403477 99.1368 0.0116507C95.3614 0.0485656 91.5582 0.140654 90.6852 0.216469ZM86.9158 24.7776C84.8425 25.1031 80.8493 25.9898 78.042 26.748C75.2347 27.5061 71.0272 28.9331 68.6917 29.9195C66.3562 30.9055 62.7836 32.6639 60.752 33.8273C58.7205 34.9907 55.349 37.1758 53.2599 38.6834C51.1704 40.1914 47.3791 43.4788 44.8345 45.9894C42.2899 48.5 38.8803 52.3483 37.2575 54.5409C35.6346 56.734 33.492 59.9492 32.4964 61.6858C31.5009 63.4227 30.1844 65.9723 29.5709 67.3512C28.4556 69.859 28.4556 69.859 27.1438 66.3589C26.422 64.4341 25.4499 62.5467 24.9837 62.1645C24.5171 61.7822 23.6354 61.4698 23.0244 61.4698C22.2709 61.4698 21.5828 61.8628 20.8861 62.6912C20.321 63.3628 19.8588 64.1622 19.8588 64.4675C19.8588 64.7727 21.2348 68.6198 22.9168 73.0167C25.7535 80.4322 26.0685 81.0554 27.2684 81.6278C28.5405 82.2347 28.6881 82.1966 36.2131 79.3057C40.4215 77.6894 44.2663 75.9702 44.7572 75.4856C45.2948 74.9553 45.6499 74.1237 45.6499 73.3957C45.6499 72.7213 45.3035 71.8405 44.8663 71.4031C44.4354 70.972 43.6525 70.5116 43.1264 70.3794C42.4951 70.2206 40.7774 70.6859 38.0776 71.7461C35.8271 72.6296 33.9423 73.3092 33.8892 73.256C33.8356 73.2028 34.5538 71.5559 35.485 69.5967C36.4163 67.6374 37.9566 64.7842 38.9081 63.256C39.8596 61.7278 41.8074 58.9592 43.2367 57.1035C44.6655 55.2479 47.391 52.1927 49.2932 50.314C51.1958 48.4353 54.0555 45.9029 55.649 44.6862C57.2421 43.4696 60.0969 41.5028 61.9936 40.3156C63.8898 39.128 67.3649 37.314 69.7158 36.2843C72.0664 35.2543 76.0807 33.8094 78.6364 33.0735C81.1921 32.338 85.3949 31.4421 87.976 31.0837C91.4546 30.6002 94.5178 30.478 99.8113 30.6109C105.018 30.7419 108.123 31.0277 111.27 31.6664C113.644 32.1479 117.483 33.1605 119.801 33.9162C122.119 34.672 126.337 36.4499 129.174 37.8673C132.011 39.2848 136.028 41.6469 138.101 43.1164C140.174 44.5858 144.103 48.0213 146.831 50.751C149.558 53.4807 152.827 57.177 154.094 58.9652C155.361 60.753 157.281 63.7895 158.361 65.7131C159.441 67.6362 161.113 71.0856 162.077 73.3779C163.041 75.6702 164.28 79.2426 164.83 81.3166C165.381 83.3905 166.13 87.0431 166.495 89.4335C167.007 92.7836 167.115 95.4673 166.966 101.143C166.825 106.516 166.536 109.681 165.899 112.851C165.418 115.241 164.344 119.269 163.512 121.803C162.68 124.336 161.175 128.067 160.167 130.093C159.16 132.118 157.615 135.009 156.735 136.517C155.854 138.025 154.03 140.734 152.68 142.539C151.33 144.342 148.34 147.694 146.036 149.986C143.731 152.279 140.155 155.366 138.089 156.848C136.022 158.329 131.832 160.776 128.777 162.284C125.722 163.794 121.584 165.565 119.582 166.222C117.581 166.879 113.92 167.826 111.448 168.327C107.54 169.118 105.787 169.236 98.0258 169.229C91.1237 169.223 88.2878 169.061 85.527 168.519C83.5629 168.133 80.3489 167.353 78.3848 166.785C76.4207 166.218 72.8437 164.921 70.436 163.902C68.0279 162.884 64.587 161.175 62.7891 160.105C60.9913 159.036 58.0126 157.028 56.1699 155.645C54.3269 154.261 50.9288 151.261 48.6187 148.978C46.0844 146.473 44.1013 144.826 43.6192 144.826C43.1799 144.826 42.4598 145.019 42.0193 145.255C41.5785 145.491 40.9559 146.311 40.6353 147.079C40.1092 148.339 40.1191 148.576 40.7365 149.528C41.1127 150.107 42.5951 151.806 44.031 153.303C45.467 154.799 48.2525 157.322 50.2209 158.908C52.189 160.495 55.3645 162.813 57.2766 164.06C59.1891 165.307 62.9352 167.362 65.6012 168.627C68.2676 169.893 71.8775 171.392 73.6234 171.96C75.3693 172.527 78.6725 173.431 80.964 173.969C83.2554 174.507 86.8804 175.159 89.0191 175.419C91.4475 175.713 95.6951 175.811 100.328 175.679C105.357 175.537 109.153 175.204 112.112 174.647C114.512 174.196 118.519 173.179 121.015 172.387C123.511 171.596 127.567 169.998 130.028 168.837C132.489 167.676 136.071 165.703 137.988 164.454C139.905 163.205 142.545 161.361 143.855 160.357C145.164 159.353 147.73 157.1 149.556 155.35C151.383 153.601 153.988 150.83 155.345 149.192C156.703 147.555 158.931 144.543 160.298 142.498C161.665 140.454 163.973 136.346 165.426 133.369C166.879 130.392 168.734 125.902 169.547 123.392C170.361 120.881 171.37 117.13 171.789 115.056C172.208 112.982 172.771 109.518 173.04 107.357C173.352 104.841 173.446 101.059 173.3 96.8383C173.163 92.8709 172.75 88.5094 172.263 85.8813C171.817 83.4799 171.021 80.0861 170.493 78.3396C169.964 76.593 169.068 73.9419 168.502 72.4482C167.935 70.9542 166.662 68.1133 165.672 66.135C164.682 64.1567 162.746 60.824 161.371 58.7294C159.995 56.6344 157.788 53.5808 156.466 51.9434C155.144 50.306 152.301 47.2675 150.148 45.1907C147.996 43.114 144.861 40.3874 143.181 39.1311C141.501 37.8748 138.692 35.9565 136.938 34.8681C135.184 33.7801 132.184 32.157 130.271 31.2611C128.358 30.3656 124.739 28.9315 122.23 28.0741C119.72 27.2171 115.524 26.0593 112.905 25.5012C108.824 24.6311 106.896 24.4648 99.4145 24.3362C92.9921 24.2259 89.6889 24.3426 86.9158 24.7776Z" fill="#1A1A1A" fill-opacity="0.8"/>
<path d="M99.6185 151.166C127.881 151.166 150.619 128.428 150.619 100.166C150.619 71.9029 127.881 49.1655 99.6185 49.1655C71.3559 49.1655 48.6185 71.9029 48.6185 100.166C48.6185 128.428 71.3559 151.166 99.6185 151.166Z" fill="#2775CA"/>
<path d="M113.644 108.24C113.644 100.803 109.181 98.253 100.256 97.1907C93.881 96.3405 92.606 94.6407 92.606 91.6654C92.606 88.69 94.7312 86.778 98.981 86.778C102.806 86.778 104.931 88.053 105.994 91.2405C106.206 91.878 106.844 92.3029 107.481 92.3029H110.881C111.731 92.3029 112.369 91.6654 112.369 90.8157V90.603C111.518 85.9279 107.693 82.3155 102.806 81.8907V76.7907C102.806 75.9405 102.169 75.303 101.106 75.0904H97.9187C97.0685 75.0904 96.431 75.7279 96.2184 76.7907V81.678C89.8434 82.5282 85.8062 86.778 85.8062 92.0907C85.8062 99.1032 90.056 101.865 98.981 102.928C104.931 103.991 106.844 105.266 106.844 108.666C106.844 112.066 103.868 114.403 99.8312 114.403C94.3059 114.403 92.3934 112.065 91.7559 108.878C91.5437 108.028 90.9062 107.603 90.2687 107.603H86.6559C85.8062 107.603 85.1687 108.24 85.1687 109.091V109.303C86.0184 114.615 89.4185 118.44 96.431 119.503V124.603C96.431 125.453 97.0685 126.09 98.1309 126.303H101.318C102.169 126.303 102.806 125.666 103.019 124.603V119.503C109.394 118.44 113.644 113.978 113.644 108.24Z" fill="white"/>
<path d="M88.7811 130.553C72.2061 124.603 63.7059 106.116 69.8687 89.7529C73.0562 80.8279 80.0687 74.028 88.7811 70.8405C89.6312 70.4157 90.0561 69.7782 90.0561 68.7154V65.7405C90.0561 64.8904 89.6312 64.2529 88.7811 64.0407C88.5684 64.0407 88.1436 64.0407 87.9309 64.2529C67.7436 70.6279 56.6934 92.0907 63.0684 112.278C66.8934 124.178 76.0311 133.316 87.9309 137.141C88.7811 137.565 89.6312 137.141 89.8434 136.29C90.0561 136.078 90.0561 135.866 90.0561 135.441V132.465C90.0561 131.828 89.4186 130.978 88.7811 130.553ZM111.306 64.2529C110.456 63.828 109.606 64.2529 109.394 65.103C109.181 65.3157 109.181 65.5279 109.181 65.9532V68.928C109.181 69.7782 109.819 70.6279 110.456 71.0532C127.031 77.0029 135.531 95.4903 129.368 111.853C126.181 120.778 119.168 127.578 110.456 130.766C109.606 131.19 109.181 131.828 109.181 132.891V135.866C109.181 136.716 109.606 137.353 110.456 137.565C110.669 137.565 111.094 137.565 111.306 137.353C131.494 130.978 142.544 109.515 136.169 89.328C132.344 77.2155 122.993 68.0779 111.306 64.2529Z" fill="white"/>
</svg>
