<svg width="350" height="170" viewBox="0 0 350 170" fill="none" xmlns="http://www.w3.org/2000/svg">
<rect width="20" height="20" rx="5" fill="#191B20"/>
<rect x="30" width="20" height="20" rx="5" fill="#191B20"/>
<rect x="60" width="20" height="20" rx="5" fill="#F9D852"/>
<rect x="90" width="20" height="20" rx="5" fill="#F9D852"/>
<rect x="120" width="20" height="20" rx="5" fill="#F8D853"/>
<rect x="150" width="20" height="20" rx="5" fill="#191B20"/>
<rect x="180" width="20" height="20" rx="5" fill="#191B20"/>
<path d="M210 5C210 2.23858 212.239 0 215 0H225C227.761 0 230 2.23858 230 5V15C230 17.7614 227.761 20 225 20H215C212.239 20 210 17.7614 210 15V5Z" fill="#191B20"/>
<rect x="240" width="20" height="20" rx="5" fill="#191B20"/>
<rect x="270" width="20" height="20" rx="5" fill="#191B20"/>
<rect x="300" width="20" height="20" rx="5" fill="#191B20"/>
<rect x="330" width="20" height="20" rx="5" fill="#191B20"/>
<rect y="30" width="20" height="20" rx="5" fill="#191B20"/>
<rect x="30" y="30" width="20" height="20" rx="5" fill="#191B20"/>
<rect x="60" y="30" width="20" height="20" rx="5" fill="#191B20"/>
<rect x="90" y="30" width="20" height="20" rx="5" fill="#191B20"/>
<rect x="120" y="30" width="20" height="20" rx="5" fill="#191B20"/>
<rect x="150" y="30" width="20" height="20" rx="5" fill="#191B20"/>
<rect x="180" y="30" width="20" height="20" rx="5" fill="#191B20"/>
<rect x="210" y="30" width="20" height="20" rx="5" fill="#191B20"/>
<rect x="240" y="30" width="20" height="20" rx="5" fill="#191B20"/>
<rect x="270" y="30" width="20" height="20" rx="5" fill="#191B20"/>
<rect x="300" y="30" width="20" height="20" rx="5" fill="#191B20"/>
<rect x="330" y="30" width="20" height="20" rx="5" fill="#191B20"/>
<rect y="60" width="20" height="20" rx="5" fill="#191B20"/>
<rect x="30" y="60" width="20" height="20" rx="5" fill="#191B20"/>
<rect x="60" y="60" width="20" height="20" rx="5" fill="#191B20"/>
<rect x="90" y="60" width="20" height="20" rx="5" fill="#191B20"/>
<rect x="120" y="60" width="20" height="20" rx="5" fill="#1A1C21"/>
<g filter="url(#filter0_df_18_84)">
<rect x="150" y="60" width="20" height="20" rx="5" fill="#3C775B"/>
</g>
<rect x="150" y="60" width="20" height="20" rx="5" fill="#3C775B"/>
<g filter="url(#filter1_df_18_84)">
<rect x="180" y="60" width="20" height="20" rx="5" fill="#3C775B"/>
</g>
<rect x="180" y="60" width="20" height="20" rx="5" fill="#3C775B"/>
<rect x="210" y="60" width="20" height="20" rx="5" fill="#191B20"/>
<rect x="240" y="60" width="20" height="20" rx="5" fill="#191B20"/>
<rect x="270" y="60" width="20" height="20" rx="5" fill="#191B20"/>
<rect x="300" y="60" width="20" height="20" rx="5" fill="#191B20"/>
<rect x="330" y="60" width="20" height="20" rx="5" fill="#191B20"/>
<rect y="90" width="20" height="20" rx="5" fill="#191B20"/>
<rect x="30" y="90" width="20" height="20" rx="5" fill="#191B20"/>
<rect x="60" y="90" width="20" height="20" rx="5" fill="#191B20"/>
<rect x="90" y="90" width="20" height="20" rx="5" fill="#191B20"/>
<rect x="120" y="90" width="20" height="20" rx="5" fill="#191B20"/>
<rect x="150" y="90" width="20" height="20" rx="5" fill="#191B20"/>
<rect x="180" y="90" width="20" height="20" rx="5" fill="#191B20"/>
<rect x="210" y="90" width="20" height="20" rx="5" fill="#191B20"/>
<rect x="240" y="90" width="20" height="20" rx="5" fill="#191B20"/>
<path d="M270 95C270 92.2386 272.239 90 275 90H285C287.761 90 290 92.2386 290 95V105C290 107.761 287.761 110 285 110H275C272.239 110 270 107.761 270 105V95Z" fill="#191B20"/>
<rect x="300" y="90" width="20" height="20" rx="5" fill="#191B20"/>
<rect x="330" y="90" width="20" height="20" rx="5" fill="#191B20"/>
<rect y="120" width="20" height="20" rx="5" fill="#191B20"/>
<rect x="30" y="120" width="20" height="20" rx="5" fill="#191B20"/>
<rect x="60" y="120" width="20" height="20" rx="5" fill="#F9D852"/>
<rect x="90" y="120" width="20" height="20" rx="5" fill="#F9D852"/>
<rect x="120" y="120" width="20" height="20" rx="5" fill="#191B20"/>
<rect x="150" y="120" width="20" height="20" rx="5" fill="#191B20"/>
<rect x="180" y="120" width="20" height="20" rx="5" fill="#191B20"/>
<rect x="210" y="120" width="20" height="20" rx="5" fill="#191B20"/>
<rect x="240" y="120" width="20" height="20" rx="5" fill="#F9D852"/>
<rect x="270" y="120" width="20" height="20" rx="5" fill="#F9D852"/>
<rect x="300" y="120" width="20" height="20" rx="5" fill="#F9D852"/>
<rect x="330" y="120" width="20" height="20" rx="5" fill="#191B20"/>
<rect y="150" width="20" height="20" rx="5" fill="#191B20"/>
<rect x="30" y="150" width="20" height="20" rx="5" fill="#191B20"/>
<rect x="60" y="150" width="20" height="20" rx="5" fill="#191B20"/>
<rect x="90" y="150" width="20" height="20" rx="5" fill="#191B20"/>
<rect x="120" y="150" width="20" height="20" rx="5" fill="#191B20"/>
<rect x="150" y="150" width="20" height="20" rx="5" fill="#191B20"/>
<rect x="180" y="150" width="20" height="20" rx="5" fill="#191B20"/>
<rect x="210" y="150" width="20" height="20" rx="5" fill="#191B20"/>
<rect x="240" y="150" width="20" height="20" rx="5" fill="#191B20"/>
<rect x="270" y="150" width="20" height="20" rx="5" fill="#191B20"/>
<rect x="300" y="150" width="20" height="20" rx="5" fill="#191B20"/>
<rect x="330" y="150" width="20" height="20" rx="5" fill="#191B20"/>
<path fill-rule="evenodd" clip-rule="evenodd" d="M190 91.1475V72.5L203.496 86.0289H195.601L195.122 86.1733L190 91.1475Z" fill="white"/>
<path fill-rule="evenodd" clip-rule="evenodd" d="M200.578 91.9327L196.38 93.72L190.929 80.8082L195.22 78.9999L200.578 91.9327Z" fill="white"/>
<path fill-rule="evenodd" clip-rule="evenodd" d="M199.025 91.1401L196.878 92.0413L193.268 83.4552L195.412 82.5528L199.025 91.1401Z" fill="black"/>
<path fill-rule="evenodd" clip-rule="evenodd" d="M191.164 75.3028V88.3299L194.622 84.9928L195.12 84.8309H200.672L191.164 75.3028Z" fill="black"/>
<rect width="350" height="170" fill="url(#paint0_radial_18_84)"/>
<defs>
<filter id="filter0_df_18_84" x="129" y="39" width="62" height="62" filterUnits="userSpaceOnUse" color-interpolation-filters="sRGB">
<feFlood flood-opacity="0" result="BackgroundImageFix"/>
<feColorMatrix in="SourceAlpha" type="matrix" values="0 0 0 0 0 0 0 0 0 0 0 0 0 0 0 0 0 0 127 0" result="hardAlpha"/>
<feMorphology radius="1" operator="dilate" in="SourceAlpha" result="effect1_dropShadow_18_84"/>
<feOffset/>
<feGaussianBlur stdDeviation="10"/>
<feComposite in2="hardAlpha" operator="out"/>
<feColorMatrix type="matrix" values="0 0 0 0 0.235294 0 0 0 0 0.466667 0 0 0 0 0.352941 0 0 0 1 0"/>
<feBlend mode="normal" in2="BackgroundImageFix" result="effect1_dropShadow_18_84"/>
<feBlend mode="normal" in="SourceGraphic" in2="effect1_dropShadow_18_84" result="shape"/>
<feGaussianBlur stdDeviation="5" result="effect2_foregroundBlur_18_84"/>
</filter>
<filter id="filter1_df_18_84" x="159" y="39" width="62" height="62" filterUnits="userSpaceOnUse" color-interpolation-filters="sRGB">
<feFlood flood-opacity="0" result="BackgroundImageFix"/>
<feColorMatrix in="SourceAlpha" type="matrix" values="0 0 0 0 0 0 0 0 0 0 0 0 0 0 0 0 0 0 127 0" result="hardAlpha"/>
<feMorphology radius="1" operator="dilate" in="SourceAlpha" result="effect1_dropShadow_18_84"/>
<feOffset/>
<feGaussianBlur stdDeviation="10"/>
<feComposite in2="hardAlpha" operator="out"/>
<feColorMatrix type="matrix" values="0 0 0 0 0.235294 0 0 0 0 0.466667 0 0 0 0 0.352941 0 0 0 1 0"/>
<feBlend mode="normal" in2="BackgroundImageFix" result="effect1_dropShadow_18_84"/>
<feBlend mode="normal" in="SourceGraphic" in2="effect1_dropShadow_18_84" result="shape"/>
<feGaussianBlur stdDeviation="5" result="effect2_foregroundBlur_18_84"/>
</filter>
<radialGradient id="paint0_radial_18_84" cx="0" cy="0" r="1" gradientUnits="userSpaceOnUse" gradientTransform="translate(175 85) rotate(90) scale(112.5 231.618)">
<stop offset="0.421875" stop-color="#F8F7F1" stop-opacity="0"/>
<stop offset="1" stop-color="#F8F7F1"/>
</radialGradient>
</defs>
</svg>
