<svg width="1150" height="1148" viewBox="0 0 1150 1148" fill="none" xmlns="http://www.w3.org/2000/svg">
<path d="M562 424.028C562 419.058 557.971 415.028 553 415.028C548.029 415.028 544 419.058 544 424.028V1024.03C544 1029 548.029 1033.03 553 1033.03C557.971 1033.03 562 1029 562 1024.03V424.028Z" fill="#2B254E"/>
<path fill-rule="evenodd" clip-rule="evenodd" d="M207 452.028L199.5 487.028L153.5 499.028L72 522.028L100 487.028L54.5 496.028L94.5 472.601L59.5 472.528L23 449.028L66.5 452.101C107.167 457.052 127.5 459.528 127.5 459.528C127.5 459.528 107.167 447.028 66.5 422.028L207 452.028ZM941 479.028L1081.5 449.028C1059.83 464.077 1049 471.601 1049 471.601C1049 471.601 1061.67 474.077 1087 479.028L1127 506.028L1087 495.101L1035.5 495.028L1093.5 523.028L1029.5 506.028L1076 549.028L1001.5 514.028H948.5L941 479.028ZM566.016 196.007L564.828 167.979L553.83 146.421L582.742 166.758L581.152 141.069L548.106 116.973L561.331 119.496L588.406 135.626L596.53 161.817L603.676 122.47L609.877 154.373L626.061 132.458L615.293 173.903L636.5 149.528L618 200.028L566.016 196.007ZM438.338 781.845L464.716 799.426L458.906 846.264L450.051 929.771L441.911 917.816L438.411 886.816L404.911 929.816L419.248 875.461L397.911 917.816L378.911 940.816L385.411 912.316C398.411 879.649 404.911 863.316 404.911 863.316C404.911 863.316 398.411 873.983 385.411 895.316L365.476 904.842L438.338 781.845ZM573.348 803.853L604.013 811.89L613.768 858.067L632.583 939.908L620.5 929.601L608.74 902.216L607.592 903.082L607.5 961.101L601 948.601L589.5 873.101H588L584 929.601L577 965.101H575L570.5 929.601V898.601L562 923.101L544.5 943.871L573.348 803.853Z" fill="#FFD25B"/>
<path fill-rule="evenodd" clip-rule="evenodd" d="M553 414.602L500.5 549.102H628L590.5 424.602L553 414.602Z" fill="#FFD25B"/>
<mask id="mask0_24_2" style="mask-type:alpha" maskUnits="userSpaceOnUse" x="407" y="539" width="238" height="303">
<path d="M434.5 720.028L413.072 776.069C406.841 792.363 405.769 810.178 410 827.102C413.667 832.435 421.833 836.102 434.5 838.102C447.167 840.102 456.352 840.153 462.055 838.256L469.019 830.71C477.919 821.066 484.834 809.763 489.369 797.448L545.217 645.796L553 645.602V790.77C553 807.316 557.704 823.522 566.564 837.496C573.855 839.9 582.333 841.102 592 841.102C601.667 841.102 608.167 839.268 611.5 835.602C622.252 822.895 628.945 807.254 630.714 790.702L645 657.028L628 549.102C617.778 546.435 605.278 545.102 590.5 545.102C575.722 545.102 545.722 543.244 500.5 539.528L434.5 720.028Z" fill="white"/>
</mask>
<g mask="url(#mask0_24_2)">
<path d="M434.5 720.028L413.072 776.069C406.841 792.363 405.769 810.178 410 827.102C413.667 832.435 421.833 836.102 434.5 838.102C447.167 840.102 456.352 840.153 462.055 838.256L469.019 830.71C477.919 821.066 484.834 809.763 489.369 797.448L545.217 645.796L553 645.602V790.77C553 807.316 557.704 823.522 566.564 837.496C573.855 839.9 582.333 841.102 592 841.102C601.667 841.102 608.167 839.268 611.5 835.602C622.252 822.895 628.945 807.254 630.714 790.702L645 657.028L628 549.102C617.778 546.435 605.278 545.102 590.5 545.102C575.722 545.102 545.722 543.244 500.5 539.528L434.5 720.028Z" fill="#FF6D5B"/>
<path fill-rule="evenodd" clip-rule="evenodd" d="M503.666 759.119L468.5 766.602L505.236 729.16L494.973 667.038L532.374 689.026L503.666 759.119Z" fill="#FFD25B"/>
</g>
<path fill-rule="evenodd" clip-rule="evenodd" d="M625 423.528C652.333 442.862 680.167 456.528 708.5 464.528C736.833 472.528 818.667 472.528 954 464.528V549.102L779.059 555.53C768.748 555.909 758.441 554.69 748.504 551.916L645 523.028L708.5 704.028L685.708 706.72L673.5 695.102L668.5 706.602L638.249 712.324L628 695.102L617.658 714.755L573 720.028L584 427.528L625 423.528ZM517.5 415.028L555.5 421.528L451.5 720.028L408 710.602L404 698.102L392.31 707.316L382 705.102V683.102L362.615 702.228L338 698.028L451.5 493.528C416.167 508.577 390.167 516.102 373.5 516.102C356.833 516.102 297.167 516.102 194.5 516.102V476.602V437.528C312.167 430.862 384.667 427.528 412 427.528C439.333 427.528 474.5 423.362 517.5 415.028Z" fill="#2B254E"/>
<path fill-rule="evenodd" clip-rule="evenodd" d="M954 464.528H1041.75C1045.75 464.528 1049 467.774 1049 471.778C1049 475.782 1045.75 479.028 1041.75 479.028H954V464.528ZM107.25 464.528H195V479.028H107.25C103.246 479.028 100 475.782 100 471.778C100 467.774 103.246 464.528 107.25 464.528Z" fill="#847DAA"/>
<path fill-rule="evenodd" clip-rule="evenodd" d="M610.145 448.528L620.432 608.045L620.5 608.028L622 624.101L616.5 624.028V609.469L607.162 610.328L608.5 624.601H603V610.71L594.18 611.521L595.5 625.601H590V611.906L581 612.733V626.601H576.5L576.986 612.5L573.229 448.528C559.773 448.528 548.197 448.528 547.5 448.528C546 448.528 527 411.528 597 417.028C621.571 418.958 633.71 413.434 641 417.028C645.861 419.424 646.694 426.09 643.5 437.028C631.834 444.694 621.834 448.528 613.5 448.528C612.583 448.528 611.453 448.528 610.145 448.528Z" fill="#60588E"/>
<path fill-rule="evenodd" clip-rule="evenodd" d="M406.5 318.102C411.014 337.957 424.014 353.433 445.5 364.528C466.986 375.624 499.986 384.124 544.5 390.028L677.316 390.094L700.361 379.917L713.157 374.267C727.544 367.914 740.039 357.94 749.424 345.319L754 339.164C753.18 334.622 740.347 327.268 715.5 317.102C690.653 306.935 658.291 296.13 618.414 284.686C602.42 273.881 578.711 271.292 547.286 276.919C518.976 281.988 475.392 281.948 423 303.102C419.157 304.654 413.657 309.654 406.5 318.102Z" fill="#2B254E"/>
<path fill-rule="evenodd" clip-rule="evenodd" d="M505.5 409.028C499.5 410.362 496.5 415.195 496.5 423.528C496.5 431.862 513.5 440.219 547.5 448.602C551.724 442.445 555.891 438.112 560 435.602C564.109 433.092 571.442 430.401 582 427.528L505.5 409.028Z" fill="#847DAA"/>
<mask id="mask1_24_2" style="mask-type:alpha" maskUnits="userSpaceOnUse" x="463" y="252" width="222" height="175">
<path d="M573.862 426.013C596.226 426.013 605.278 426.594 633.734 420.179C641.102 418.519 642.177 414.25 648.373 410.707C652.321 408.45 657.351 405.239 660.727 403.878C684.127 394.45 684.403 364.225 684.403 338.916C684.403 302.636 641.658 269.437 611.077 256.762C593.883 249.635 596.125 255.194 573.862 255.194C558.473 255.194 569.884 249.305 556.537 254.451C516.235 269.988 468.307 299.922 464.009 335.567C460.864 361.651 469.155 398.876 499.564 410.762C501.372 411.469 509.48 414.137 513.172 415.868C516.701 417.522 517.573 420.571 519.269 421.26C535.38 427.805 553.34 426.013 573.862 426.013Z" fill="white"/>
</mask>
<g mask="url(#mask1_24_2)">
<path d="M564.798 425.534C587.039 427.872 595.981 429.396 624.952 425.991C632.453 425.11 633.968 420.977 640.501 418.101C644.663 416.269 650.001 413.601 653.501 412.601C677.757 405.67 681.191 375.64 683.837 350.469C687.629 314.388 648.588 276.903 619.501 261.101C603.145 252.216 604.794 257.978 582.653 255.651C567.348 254.043 579.313 249.379 565.501 253.101C523.795 264.34 473.001 289.101 465.001 324.101C459.146 349.713 463.501 387.601 492.501 402.601C494.225 403.493 502.01 406.994 505.501 409.101C508.838 411.115 509.385 414.238 511.001 415.101C526.339 423.294 544.388 423.389 564.798 425.534Z" fill="#FF6D5B"/>
</g>
<path fill-rule="evenodd" clip-rule="evenodd" d="M531.488 300.98L545.16 302.902C550.046 303.588 554.281 306.633 556.488 311.045C562.058 322.182 564.731 328.548 564.507 330.144C564.283 331.738 560.119 336.054 552.015 343.093C548.739 345.939 544.39 347.226 540.092 346.622L524.249 344.395C519.615 343.744 515.551 340.968 513.259 336.889C508.978 329.27 506.994 324.345 507.307 322.115C507.625 319.859 511.099 314.624 517.73 306.411C521.042 302.308 526.266 300.246 531.488 300.98ZM629.969 312.363L639.806 313.224C644.984 313.677 649.558 316.777 651.896 321.419C657.116 331.784 659.658 337.753 659.52 339.326C659.384 340.888 655.982 345.253 649.316 352.421C646.166 355.807 641.631 357.552 637.024 357.149L625.036 356.1C620.086 355.667 615.671 352.81 613.248 348.471C609.371 341.53 607.527 336.974 607.717 334.803C607.911 332.586 610.708 327.35 616.109 319.095C619.135 314.468 624.461 311.881 629.969 312.363Z" fill="white"/>
<path fill-rule="evenodd" clip-rule="evenodd" d="M541 329.602C537.134 329.602 534 326.468 534 322.602C534 318.736 537.134 315.602 541 315.602C544.866 315.602 548 318.736 548 322.602C548 326.468 544.866 329.602 541 329.602ZM635.819 340.784C631.953 340.784 628.819 337.65 628.819 333.784C628.819 329.918 631.953 326.784 635.819 326.784C639.685 326.784 642.819 329.918 642.819 333.784C642.819 337.65 639.685 340.784 635.819 340.784ZM590.634 320.51C590.908 319.85 591.514 319.386 592.223 319.293C593.319 319.151 594.322 319.924 594.464 321.019L599.67 361.064C599.691 361.225 599.692 361.389 599.674 361.551C599.547 362.648 598.555 363.435 597.458 363.308L576.634 360.906C576.45 360.884 576.269 360.837 576.097 360.766C575.077 360.343 574.593 359.172 575.016 358.152L590.634 320.51ZM501.74 361.023L525.357 361.878L542.864 375.69L563.858 367.707L579.369 381.659L603.715 371.435L616.882 380.539L629.397 373.148L657.423 379.709L629.99 381.627L611.873 394.923L599.923 381.725L576.68 393.375L560.066 377.996L543.701 387.661L523.955 370.497L501.74 361.023Z" fill="#2B254E"/>
<path fill-rule="evenodd" clip-rule="evenodd" d="M551.439 197.628L548.5 230.528L626 240.028L627.496 205.997C627.791 199.285 623.276 193.31 616.739 191.76C603.107 188.528 592.396 186.471 584.606 185.59C578.395 184.887 571.832 184.651 564.918 184.881C557.851 185.117 552.069 190.585 551.439 197.628Z" fill="#60588E"/>
<mask id="mask2_24_2" style="mask-type:alpha" maskUnits="userSpaceOnUse" x="406" y="193" width="348" height="148">
<path d="M553 193.102C532.667 236.435 503.667 265.744 466 281.028C441.128 291.121 423.433 296.953 414.196 306.735C411.268 309.835 408.703 313.624 406.5 318.102C415.318 320.875 421.818 322.708 426 323.602C477.5 334.602 515.832 328.514 539 324.102C550.06 321.995 566.84 317.912 589.341 311.853C602.215 308.386 615.652 307.529 628.861 309.331C683.924 316.844 717.637 322.601 730 326.602C743.82 331.074 751.714 335.55 753.683 340.028C755.162 329.67 751.464 321.532 742.589 315.613C738.265 312.73 713.04 307.041 694.5 295.028C684.397 288.482 670.282 275.981 652.156 257.526C641.357 246.53 633.833 232.745 630.426 217.715L627 202.602L553 193.102Z" fill="white"/>
</mask>
<g mask="url(#mask2_24_2)">
<path d="M553 193.102C532.667 236.435 503.667 265.744 466 281.028C441.128 291.121 423.433 296.953 414.196 306.735C411.268 309.835 408.703 313.624 406.5 318.102C415.318 320.875 421.818 322.708 426 323.602C477.5 334.602 515.832 328.514 539 324.102C550.06 321.995 566.84 317.912 589.341 311.853C602.215 308.386 615.652 307.529 628.861 309.331C683.924 316.844 717.637 322.601 730 326.602C743.82 331.074 751.714 335.55 753.683 340.028C755.162 329.67 751.464 321.532 742.589 315.613C738.265 312.73 713.04 307.041 694.5 295.028C684.397 288.482 670.282 275.981 652.156 257.526C641.357 246.53 633.833 232.745 630.426 217.715L627 202.602L553 193.102Z" fill="#60588E"/>
<mask id="mask3_24_2" style="mask-type:alpha" maskUnits="userSpaceOnUse" x="507" y="196" width="92" height="71">
<path d="M507.5 256.102L539.5 235.102L553 266.602L569 235.102L599 231.102L569 217.602L548.5 196.602L507.5 256.102Z" fill="white"/>
</mask>
<g mask="url(#mask3_24_2)">
<path d="M507.5 256.102L539.5 235.102L553 266.602L569 235.102L599 231.102L569 217.602L548.5 196.602L507.5 256.102Z" fill="#2B254E"/>
<path fill-rule="evenodd" clip-rule="evenodd" d="M561 210.102L539.5 261.602L553 274.102L613.5 231.602L561 210.102Z" fill="#FFD25B"/>
</g>
</g>
<path d="M198 234.602C220.644 234.602 239 216.245 239 193.602C239 170.958 220.644 152.602 198 152.602C175.356 152.602 157 170.958 157 193.602C157 216.245 175.356 234.602 198 234.602Z" fill="#EBEEF6"/>
<path fill-rule="evenodd" clip-rule="evenodd" d="M288 302.602L281 324.102C264.333 324.102 256 324.102 256 324.102C256 324.102 264.333 326.268 281 330.602C283.667 348.268 285 357.102 285 357.102C285 357.102 286.667 349.102 290 333.102L311.5 328.102L290 324.102L288 302.602Z" fill="#FFD25B"/>
<path fill-rule="evenodd" clip-rule="evenodd" d="M801 193.602L794 215.102C777.333 215.102 769 215.102 769 215.102C769 215.102 777.333 217.268 794 221.602C796.667 239.268 798 248.102 798 248.102C798 248.102 799.667 240.102 803 224.102L824.5 219.102L803 215.102L801 193.602Z" fill="#FFD25B"/>
<path fill-rule="evenodd" clip-rule="evenodd" d="M848.216 387.602L842.919 403.776C830.306 403.776 824 403.776 824 403.776C824 403.776 830.306 405.406 842.919 408.666C844.937 421.956 845.946 428.602 845.946 428.602C845.946 428.602 847.207 422.583 849.73 410.547L866 406.785L849.73 403.776L848.216 387.602Z" fill="#FFD25B"/>
<path fill-rule="evenodd" clip-rule="evenodd" d="M391.333 191.102L386.667 205.303C375.556 205.303 370 205.303 370 205.303C370 205.303 375.556 206.735 386.667 209.597C388.444 221.267 389.333 227.102 389.333 227.102C389.333 227.102 390.444 221.817 392.667 211.248L407 207.946L392.667 205.303L391.333 191.102Z" fill="#FFD25B"/>
<path fill-rule="evenodd" clip-rule="evenodd" d="M289.713 631.685C289.716 631.721 289.716 631.757 289.713 631.793C289.514 634.061 277.586 636.034 262.91 634.747C248.235 633.461 236.802 630.645 237.001 628.377C237.011 628.257 237.054 628.14 237.128 628.028L241 608.601L240.814 589.795L243.102 566.234L294.681 570.695L287.567 590.502L289.792 631.69L289.713 631.685ZM924.327 668.517C924.339 668.551 924.348 668.586 924.354 668.621C924.75 670.864 913.738 675.857 899.229 678.413C884.721 680.968 872.949 681.208 872.554 678.965C872.531 678.834 872.547 678.697 872.602 678.554L872.5 661.601L864.069 640.725C862.704 637.344 862.038 633.722 862.11 630.077L862.363 617.361L913.34 608.32C915.601 614.938 916.988 620.698 917.5 625.601C918.013 630.504 918.013 638.004 917.5 648.101L924.404 668.502L924.327 668.517ZM817.75 662.262C817.753 662.298 817.754 662.334 817.751 662.37C817.592 664.641 805.7 666.822 791.004 665.792C776.308 664.762 764.828 662.146 764.987 659.875C764.995 659.758 765.034 659.644 765.102 659.534L768 641.601L768.127 621.232L770.003 597.635L821.652 601.195L814.5 636.101L817.828 662.266L817.75 662.262Z" fill="#847DAA"/>
<path fill-rule="evenodd" clip-rule="evenodd" d="M268.549 572.753C254.493 571.521 243.259 568.683 243.458 566.415C243.656 564.146 255.21 563.306 269.266 564.538C283.321 565.77 294.555 568.608 294.357 570.876C294.158 573.145 282.604 573.985 268.549 572.753ZM888.63 617.071C874.735 619.519 863.149 619.686 862.754 617.443C862.359 615.201 873.302 611.399 887.197 608.951C901.092 606.503 912.678 606.336 913.073 608.579C913.469 610.821 902.526 614.623 888.63 617.071ZM795.56 603.708C781.485 602.722 770.203 600.081 770.362 597.809C770.521 595.538 782.059 594.496 796.133 595.482C810.208 596.469 821.49 599.11 821.331 601.382C821.172 603.653 809.634 604.695 795.56 603.708Z" fill="#60588E"/>
<path d="M280.864 608.434L280.337 614.45L274.648 613.952L274.253 618.464L266.937 617.824L267.332 613.312L247.255 611.556L247.781 605.54L269.361 590.119L276.677 590.759L275.174 607.936L280.864 608.434ZM255.624 607.482L267.534 608.524L268.457 597.97L255.624 607.482ZM909.761 648.349L910.81 654.296L905.185 655.288L905.971 659.748L898.739 661.024L897.953 656.563L878.105 660.063L877.057 654.116L893.91 633.635L901.142 632.36L904.136 649.341L909.761 648.349ZM885.135 653.962L896.908 651.886L895.069 641.453L885.135 653.962ZM793 649.601C782.151 649.601 777 644.623 777 635.562C777 626.54 782.151 621.601 793 621.601C803.81 621.601 809 626.579 809 635.562C809 644.584 803.81 649.601 793 649.601ZM793 644.601C799.183 644.601 802 641.388 802 636.06C802 630.773 799.183 627.601 793 627.601C786.818 627.601 784 630.733 784 636.06C784 641.429 786.818 644.601 793 644.601Z" fill="white"/>
<path fill-rule="evenodd" clip-rule="evenodd" d="M277.954 499.715L282.165 500.596L272.667 567.972C272.512 569.073 271.494 569.84 270.393 569.684C270.349 569.678 270.305 569.671 270.262 569.661C269.077 569.414 268.287 568.289 268.456 567.091L277.954 499.715ZM802.34 530.605L806.565 531.412L798.245 598.944C798.109 600.047 797.104 600.832 796 600.696C795.956 600.69 795.913 600.683 795.869 600.675C794.68 600.448 793.871 599.338 794.019 598.136L802.34 530.605ZM872.344 544.656L876.613 544.118L889.568 610.916C889.779 612.007 889.066 613.064 887.975 613.275C887.931 613.284 887.887 613.291 887.843 613.296C886.642 613.448 885.53 612.642 885.299 611.454L872.344 544.656Z" fill="#2B254E"/>
<path fill-rule="evenodd" clip-rule="evenodd" d="M185 219.102C186.918 219.102 188.402 218.526 189.5 217.102C190.3 216.064 191 214.381 191 213.102C191 211.488 190.707 209.74 189.5 208.602C188.434 207.596 186.554 207.102 185 207.102C183.417 207.102 181.572 207.565 180.5 208.602C179.327 209.736 179 211.515 179 213.102C179 216.139 181.686 219.102 185 219.102Z" fill="#C1C6D3"/>
<path fill-rule="evenodd" clip-rule="evenodd" d="M208 187.602C210.876 187.602 213.102 186.738 214.75 184.602C215.95 183.046 217 180.521 217 178.602C217 176.182 216.56 173.559 214.75 171.852C213.152 170.344 210.331 169.602 208 169.602C205.626 169.602 202.858 170.296 201.25 171.852C199.491 173.553 199 176.221 199 178.602C199 183.158 203.029 187.602 208 187.602Z" fill="#C1C6D3"/>
<path fill-rule="evenodd" clip-rule="evenodd" d="M220.884 203.918C222.104 203.156 222.819 202.2 222.952 200.857C223.048 199.88 222.825 198.531 222.316 197.717C221.675 196.691 220.793 195.695 219.573 195.451C218.496 195.235 217.103 195.668 216.115 196.285C215.108 196.914 214.119 197.942 213.849 199.028C213.554 200.215 214.053 201.477 214.683 202.486C215.891 204.418 218.777 205.235 220.884 203.918Z" fill="#C1C6D3"/>
</svg>
