<?xml version="1.0" standalone="no"?>
<!DOCTYPE svg PUBLIC "-//W3C//DTD SVG 20010904//EN"
 "http://www.w3.org/TR/2001/REC-SVG-20010904/DTD/svg10.dtd">
<svg version="1.0" xmlns="http://www.w3.org/2000/svg"
 width="30.000000pt" height="24.000000pt" viewBox="0 0 30.000000 24.000000"
 preserveAspectRatio="xMidYMid meet">

<g transform="translate(0.000000,24.000000) scale(0.100000,-0.100000)"
fill="#000000" stroke="none">
<path d="M4 227 c-2 -7 -3 -60 -2 -118 l3 -104 145 0 145 0 3 109 c2 81 -1
112 -10 118 -7 4 -73 8 -146 8 -101 0 -134 -3 -138 -13z m146 -87 c5 0 34 16
65 35 40 26 55 31 55 21 0 -15 -100 -86 -120 -86 -20 0 -120 71 -120 86 0 10
15 5 55 -21 31 -19 60 -35 65 -35z"/>
</g>
</svg>
