<?xml version="1.0" standalone="no"?>
<!DOCTYPE svg PUBLIC "-//W3C//DTD SVG 20010904//EN"
 "http://www.w3.org/TR/2001/REC-SVG-20010904/DTD/svg10.dtd">
<svg version="1.0" xmlns="http://www.w3.org/2000/svg"
 width="33.000000pt" height="33.000000pt" viewBox="0 0 33.000000 33.000000"
 preserveAspectRatio="xMidYMid meet">

<g transform="translate(0.000000,33.000000) scale(0.100000,-0.100000)"
fill="#000000" stroke="none">
<path d="M136 314 c-9 -8 -16 -19 -16 -23 0 -5 -17 -8 -37 -7 -38 1 -38 1 -39
-38 0 -25 -6 -41 -15 -44 -35 -12 -39 -58 -5 -73 18 -9 23 -18 22 -47 -1 -36
0 -37 37 -36 20 1 37 -2 37 -7 0 -15 31 -39 51 -39 11 0 24 11 30 24 9 18 18
23 47 22 36 -1 37 0 36 36 -1 28 3 39 16 43 36 11 36 69 1 80 -14 4 -18 15
-17 43 1 37 1 37 -36 36 -21 -1 -38 2 -38 7 0 13 -30 39 -45 39 -7 0 -21 -7
-29 -16z m44 -39 c0 -17 33 -28 59 -20 18 5 19 2 14 -29 -5 -32 -3 -37 21 -46
27 -10 27 -30 1 -30 -17 0 -28 -34 -20 -61 6 -18 4 -20 -14 -14 -30 9 -61 -3
-61 -26 0 -24 -18 -25 -27 -1 -10 26 -25 33 -56 26 -26 -5 -28 -4 -22 15 9 30
-3 61 -26 61 -25 0 -25 20 1 27 22 6 34 34 25 62 -5 18 -2 19 29 14 32 -5 37
-3 46 21 10 27 30 27 30 1z"/>
<path d="M120 205 c-17 -21 -16 -64 3 -82 20 -20 64 -20 84 0 19 18 20 61 3
82 -16 19 -74 19 -90 0z m70 -39 c0 -25 -15 -36 -37 -29 -7 3 -13 16 -13 29 0
19 5 24 25 24 20 0 25 -5 25 -24z"/>
</g>
</svg>
