<?xml version="1.0" standalone="no"?>
<!DOCTYPE svg PUBLIC "-//W3C//DTD SVG 20010904//EN"
 "http://www.w3.org/TR/2001/REC-SVG-20010904/DTD/svg10.dtd">
<svg version="1.0" xmlns="http://www.w3.org/2000/svg"
 width="30.000000pt" height="30.000000pt" viewBox="0 0 30.000000 30.000000"
 preserveAspectRatio="xMidYMid meet">

<g transform="translate(0.000000,30.000000) scale(0.100000,-0.100000)"
fill="#000000" stroke="none">
<path d="M133 280 c-57 -34 -35 -53 33 -28 27 9 37 9 58 -5 34 -23 43 -60 22
-92 -24 -36 -61 -42 -96 -16 -27 20 -60 28 -60 15 0 -17 24 -46 50 -59 37 -19
63 -19 100 0 32 17 60 61 60 95 0 54 -57 110 -112 110 -13 0 -38 -9 -55 -20z"/>
<path d="M58 204 c-30 -16 -58 -61 -58 -94 0 -54 57 -110 112 -110 27 0 88 35
88 50 0 13 -26 13 -66 -2 -27 -9 -37 -9 -58 5 -34 23 -43 60 -22 92 24 36 61
42 96 16 27 -20 60 -28 60 -15 0 17 -24 46 -50 59 -36 19 -67 19 -102 -1z"/>
</g>
</svg>
